<svg width="231" height="38" viewBox="0 0 231 38" fill="none" xmlns="http://www.w3.org/2000/svg">
<path d="M85.4697 12.9901V16.9057H99.1397V20.262H82.0996V9.63379H106.216V12.9901H85.4697Z" fill="white"/>
<path d="M106.207 25.1155H82.0996V28.4717H106.207V25.1155Z" fill="white"/>
<path d="M135.996 14.4271V18.0759C135.996 19.348 135.49 20.5682 134.59 21.4685C133.69 22.3688 132.469 22.8757 131.195 22.878H131.005L134.522 28.4718H130.548L124.92 19.5131H131.195C131.576 19.5131 131.943 19.3617 132.213 19.0922C132.483 18.8227 132.634 18.4571 132.634 18.0759V14.4271C132.634 14.0451 132.483 13.6787 132.213 13.4078C131.943 13.1369 131.577 12.9836 131.195 12.9813H116.189V25.3048H112.827V9.625H131.195C132.469 9.62728 133.69 10.1342 134.59 11.0345C135.49 11.9348 135.996 13.155 135.996 14.4271Z" fill="white"/>
<path d="M161.74 28.4716H142.046V25.1153H161.74C161.829 25.1154 161.917 25.0977 162 25.0635C162.082 25.0292 162.156 24.979 162.219 24.9158C162.281 24.8525 162.331 24.7775 162.364 24.695C162.397 24.6126 162.414 24.5244 162.413 24.4355V21.5009C162.414 21.4121 162.397 21.3238 162.364 21.2414C162.331 21.159 162.281 21.0839 162.219 21.0207C162.156 20.9575 162.082 20.9072 162 20.8729C161.917 20.8387 161.829 20.821 161.74 20.821H146.088C145.016 20.821 143.988 20.3958 143.23 19.6389C142.472 18.882 142.046 17.8554 142.046 16.7849V13.8503C142.046 12.7799 142.472 11.7533 143.23 10.9964C143.988 10.2394 145.016 9.81421 146.088 9.81421H165.783V13.1705H146.088C145.908 13.1705 145.734 13.2421 145.607 13.3696C145.479 13.4971 145.407 13.67 145.407 13.8503V16.7849C145.407 16.9652 145.479 17.1382 145.607 17.2657C145.734 17.3932 145.908 17.4648 146.088 17.4648H161.74C162.812 17.4671 163.839 17.893 164.596 18.6495C165.354 19.4059 165.78 20.4312 165.783 21.5009V24.4355C165.78 25.5053 165.354 26.5305 164.596 27.287C163.839 28.0434 162.812 28.4694 161.74 28.4716Z" fill="white"/>
<path d="M176.678 9.90918H173.316V28.4806H176.678V9.90918Z" fill="white"/>
<path d="M230.358 25.1155H213.352V28.4717H230.358V25.1155Z" fill="white"/>
<path d="M216.714 9.90918H213.352V26.6647H216.714V9.90918Z" fill="white"/>
<path d="M208.534 28.4718H204.458L196.278 15.8728L188.038 28.4718H184.021L196.278 9.72827L208.534 28.4718Z" fill="white"/>
<path d="M50.6914 9.85718H54.7683L62.9479 22.4561L71.1878 9.85718H75.2043L62.9479 28.6093L50.6914 9.85718Z" fill="white"/>
<path fill-rule="evenodd" clip-rule="evenodd" d="M32.3338 6.53476V6.53969L29.7139 13.7111L41.6123 0H41.5975L0.642557 0.0444206L32.3289 6.53476H32.3338ZM18.5817 5.2022L10.3759 6.56443L10.3808 6.57923L20.9199 37.6045L0 1.41164L0.0148292 1.41658L18.5817 5.2022ZM16.8961 15.404L12.3878 7.64525H21.3994H30.4159L25.9077 15.404L21.3994 23.1628L16.8961 15.404ZM21.543 25.5269L21.5529 25.517L42.9918 1.1499L22.3339 36.7703L22.329 36.7851L16.4168 19.3031L21.543 25.5269Z" fill="url(#paint0_radial_1657_3898)"/>
<defs>
<radialGradient id="paint0_radial_1657_3898" cx="0" cy="0" r="1" gradientUnits="userSpaceOnUse" gradientTransform="translate(21.175 13.475) rotate(8.56607) scale(20.2082 20.1769)">
<stop stop-color="#FBB03C"/>
<stop offset="1" stop-color="#F67B33"/>
</radialGradient>
</defs>
</svg>
