<svg width="177" height="50" viewBox="0 0 177 50" fill="none" xmlns="http://www.w3.org/2000/svg">
<path d="M79.128 17.16L71.688 26.064L71.424 25.44L67.656 30.024L66.864 26.688L74.544 17.16H79.128ZM68.88 17.16V33H64.752V17.16H68.88ZM73.032 22.392L79.416 33H74.736L69.936 24.696L73.032 22.392ZM95.7926 33H91.5446L90.4406 29.424H85.0166L83.8886 33H79.7366L85.3046 17.16H90.2486L95.7926 33ZM85.7846 26.616H89.6726L87.7286 20.208L85.7846 26.616ZM105.195 17.16C107.083 17.16 108.547 17.608 109.587 18.504C110.643 19.384 111.171 20.56 111.171 22.032C111.171 23.648 110.651 24.88 109.611 25.728C108.571 26.576 107.107 27 105.219 27L104.835 27.216H101.691V33H97.6348V17.16H105.195ZM104.619 24.288C105.419 24.288 106.019 24.128 106.419 23.808C106.819 23.488 107.019 22.976 107.019 22.272C107.019 21.584 106.819 21.08 106.419 20.76C106.019 20.44 105.419 20.28 104.619 20.28H101.691V24.288H104.619ZM107.043 25.152L112.107 33H107.547L103.491 26.064L107.043 25.152ZM127.314 17.16V20.352H122.154V33H118.026V20.352H112.842V17.16H127.314ZM129.674 33V17.16H137.378C139.33 17.176 140.77 17.552 141.698 18.288C142.626 19.008 143.09 20.056 143.09 21.432C143.09 22.328 142.826 23.104 142.298 23.76C141.77 24.4 140.962 24.808 139.874 24.984V25.008C141.09 25.168 141.994 25.592 142.586 26.28C143.194 26.952 143.498 27.768 143.498 28.728C143.498 30.088 143.018 31.144 142.058 31.896C141.098 32.632 139.658 33 137.738 33H129.674ZM133.658 30.096H137.042C137.794 30.096 138.354 29.944 138.722 29.64C139.09 29.336 139.274 28.896 139.274 28.32C139.274 27.76 139.09 27.336 138.722 27.048C138.354 26.744 137.794 26.592 137.042 26.592H133.658V30.096ZM133.658 23.64H136.658C138.13 23.64 138.866 23.064 138.866 21.912C138.866 20.76 138.13 20.184 136.658 20.184H133.658V23.64ZM153.184 16.92C154.784 16.92 156.16 17.248 157.312 17.904C158.48 18.544 159.376 19.472 160 20.688C160.624 21.904 160.936 23.368 160.936 25.08C160.936 26.792 160.624 28.256 160 29.472C159.376 30.688 158.48 31.624 157.312 32.28C156.16 32.92 154.784 33.24 153.184 33.24C151.584 33.24 150.2 32.92 149.032 32.28C147.864 31.624 146.968 30.688 146.344 29.472C145.72 28.256 145.408 26.792 145.408 25.08C145.408 23.368 145.72 21.904 146.344 20.688C146.968 19.472 147.864 18.544 149.032 17.904C150.2 17.248 151.584 16.92 153.184 16.92ZM153.184 20.16C152.416 20.16 151.768 20.344 151.24 20.712C150.712 21.08 150.312 21.632 150.04 22.368C149.768 23.088 149.632 23.992 149.632 25.08C149.632 26.152 149.768 27.056 150.04 27.792C150.312 28.528 150.712 29.08 151.24 29.448C151.768 29.816 152.416 30 153.184 30C153.952 30 154.592 29.816 155.104 29.448C155.632 29.08 156.032 28.528 156.304 27.792C156.576 27.056 156.712 26.152 156.712 25.08C156.712 23.992 156.576 23.088 156.304 22.368C156.032 21.632 155.632 21.08 155.104 20.712C154.592 20.344 153.952 20.16 153.184 20.16ZM176.478 33H171.558L168.582 27.936L165.702 33H161.022L166.398 25.032L161.334 17.16H166.206L168.918 22.008L171.654 17.16H176.142L171.078 24.912L176.478 33Z" fill="#FF8A00"/>
<path d="M25 50C38.8071 50 50 38.8071 50 25C50 11.1929 38.8071 0 25 0C11.1929 0 0 11.1929 0 25C0 38.8071 11.1929 50 25 50Z" fill="url(#paint0_linear_1209_12709)"/>
<path d="M34.1631 20.5218C28.3145 21.4886 28.2406 19.5659 27.8105 18.3318C26.5221 12.3225 22.6049 12.644 21.6403 12.644C21.2645 11.3557 18.099 8.08374 17.2408 7.86865C16.7042 7.92297 16.4348 13.45 16.2219 16.4547C13.6995 20.5327 13.4888 30.5787 14.3969 35.3432C15.0508 38.7716 18.2598 44.0901 26.4178 42.5867C35.5579 40.9029 32.5359 30.8872 32.5359 30.8872L24.5929 30.7808L24.3235 34.9131C24.3235 34.9131 24.3235 34.9131 26.0941 35.0195C25.664 38.3458 21.7468 37.1117 21.1037 34.4829C19.6046 28.3649 23.5717 26.5399 24.1084 26.2727C24.1084 26.2727 24.8058 26.7028 27.2217 27.0765C29.705 27.3307 30.9433 26.7702 31.934 25.5753C31.2019 25.7317 30.5175 25.8012 29.8853 25.8012C25.8269 25.8012 23.802 23.0007 23.7803 22.9682C23.7369 22.9073 23.7195 22.8356 23.7238 22.7661C23.7173 22.6879 23.713 22.5662 23.7934 22.5402C24.1301 22.4337 24.645 23.105 25.1751 23.5004C26.294 24.4455 28.547 25.8555 31.9449 25.0886C32.1187 25.0495 32.9552 24.9191 34.0588 24.2739C37.7044 21.9166 35.0213 20.4154 34.1631 20.5218ZM23.6391 19.177C23.4392 19.177 23.2763 19.014 23.2763 18.8142C23.2763 18.6143 23.4392 18.4513 23.6391 18.4513C23.839 18.4513 24.0019 18.6143 24.0019 18.8142C23.9997 19.0162 23.839 19.177 23.6391 19.177ZM25.5162 19.0162C25.3163 19.0162 25.1534 18.8533 25.1534 18.6534C25.1534 18.4535 25.3163 18.2906 25.5162 18.2906C25.7161 18.2906 25.879 18.4535 25.879 18.6534C25.879 18.8533 25.7161 19.0162 25.5162 19.0162ZM33.6721 22.3968C33.5157 22.3968 33.3897 22.2708 33.3897 22.1143C33.3897 21.9579 33.5157 21.8319 33.6721 21.8319C33.8285 21.8319 33.9546 21.9579 33.9546 22.1143C33.9546 22.2708 33.8285 22.3968 33.6721 22.3968ZM34.7063 22.0492C34.5499 22.0492 34.4238 21.9231 34.4238 21.7667C34.4238 21.6103 34.5499 21.4843 34.7063 21.4843C34.8627 21.4843 34.9887 21.6103 34.9887 21.7667C34.9887 21.9231 34.8627 22.0492 34.7063 22.0492Z" fill="#E67839"/>
<path d="M24.2844 12.2703C23.624 10.1868 21.8229 7.07567 21.182 7.41242C20.843 7.59057 20.5454 8.5639 20.3129 9.63933C21.0755 10.504 21.7229 11.3926 21.8794 11.9336C22.2922 11.9336 23.2372 11.8749 24.2844 12.2703Z" fill="#E67839"/>
<path d="M32.8879 25.5078C32.8249 25.5078 32.7662 25.4666 32.7401 25.3992L32.499 24.78C32.4664 24.6953 32.4946 24.5975 32.5663 24.5519L33.2094 24.1348C33.2507 24.1087 33.3028 24.1022 33.3463 24.1217C33.3897 24.1413 33.4267 24.1826 33.4419 24.2325L33.6635 24.9755C33.6896 25.0646 33.6505 25.1624 33.5722 25.1993L32.9487 25.4926C32.9313 25.5035 32.9096 25.5078 32.8879 25.5078Z" fill="#E67839"/>
<path d="M34.0562 24.6865C33.9975 24.6865 33.941 24.6539 33.915 24.5974L33.6847 24.0868C33.6542 24.0173 33.6803 23.9369 33.7477 23.8978L34.3603 23.5545C34.3994 23.5328 34.4472 23.5285 34.4907 23.5437C34.5341 23.5589 34.5667 23.5936 34.5819 23.6349L34.7927 24.2476C34.8187 24.3215 34.7796 24.4018 34.7058 24.4323L34.1127 24.6734C34.0953 24.6821 34.0757 24.6865 34.0562 24.6865Z" fill="#E67839"/>
<path d="M34.3796 20.3045C28.5309 21.2713 28.4571 19.3486 28.0269 18.1146C26.7386 12.1052 22.8214 12.4267 21.8567 12.4267C21.4809 11.1384 18.3154 7.86645 17.4573 7.65137C16.9206 7.70568 16.6512 13.2328 16.4383 16.2374C13.9159 20.3154 13.7052 30.3615 14.6133 35.1259C15.2673 38.5543 18.4762 43.8728 26.6343 42.3694C35.7744 40.6856 32.7523 30.67 32.7523 30.67L24.8093 30.5635L24.5399 34.6958C24.5399 34.6958 24.5399 34.6958 26.3106 34.8022C25.8804 38.1285 21.9632 36.8944 21.3201 34.2656C19.821 28.1476 23.7882 26.3226 24.3248 26.0554C24.3248 26.0554 25.0222 26.4856 27.4381 26.8592C29.9214 27.1134 31.1598 26.5529 32.1505 25.358C31.4183 25.5144 30.734 25.5839 30.1017 25.5839C26.0433 25.5839 24.0185 22.7835 23.9967 22.7509C23.9533 22.69 23.9359 22.6183 23.9403 22.5488C23.9337 22.4706 23.9294 22.3489 24.0098 22.3229C24.3465 22.2164 24.8614 22.8877 25.3916 23.2832C26.5104 24.2282 28.7634 25.6382 32.1613 24.8713C32.3351 24.8322 33.1716 24.7019 34.2753 24.0566C37.9209 21.6993 35.2377 20.1981 34.3796 20.3045ZM23.8555 18.9597C23.6557 18.9597 23.4927 18.7968 23.4927 18.5969C23.4927 18.397 23.6557 18.2341 23.8555 18.2341C24.0554 18.2341 24.2184 18.397 24.2184 18.5969C24.2162 18.7989 24.0554 18.9597 23.8555 18.9597ZM25.7326 18.7989C25.5328 18.7989 25.3698 18.636 25.3698 18.4361C25.3698 18.2362 25.5328 18.0733 25.7326 18.0733C25.9325 18.0733 26.0955 18.2362 26.0955 18.4361C26.0955 18.636 25.9325 18.7989 25.7326 18.7989ZM33.8886 22.1795C33.7321 22.1795 33.6061 22.0535 33.6061 21.897C33.6061 21.7406 33.7321 21.6146 33.8886 21.6146C34.045 21.6146 34.171 21.7406 34.171 21.897C34.171 22.0535 34.045 22.1795 33.8886 22.1795ZM34.9227 21.8319C34.7663 21.8319 34.6403 21.7059 34.6403 21.5494C34.6403 21.393 34.7663 21.267 34.9227 21.267C35.0791 21.267 35.2051 21.393 35.2051 21.5494C35.2051 21.7059 35.0791 21.8319 34.9227 21.8319Z" fill="white"/>
<path d="M24.5009 12.0528C23.8404 9.96929 22.0393 6.85814 21.3984 7.19489C21.0595 7.37305 20.7618 8.34637 20.5294 9.4218C21.2919 10.2865 21.9394 11.1751 22.0958 11.7161C22.5086 11.7161 23.4537 11.6574 24.5009 12.0528Z" fill="white"/>
<path d="M33.1044 25.2905C33.0414 25.2905 32.9827 25.2493 32.9566 25.1819L32.7155 24.5627C32.6829 24.478 32.7111 24.3802 32.7828 24.3346L33.4259 23.9175C33.4672 23.8914 33.5193 23.8849 33.5628 23.9044C33.6062 23.924 33.6432 23.9653 33.6584 24.0152L33.88 24.7583C33.9061 24.8473 33.8669 24.9451 33.7887 24.982L33.1652 25.2753C33.1478 25.2862 33.1261 25.2905 33.1044 25.2905Z" fill="white"/>
<path d="M34.2728 24.4694C34.2142 24.4694 34.1577 24.4368 34.1316 24.3803L33.9013 23.8698C33.8709 23.8003 33.897 23.7199 33.9643 23.6808L34.577 23.3375C34.6161 23.3158 34.6639 23.3114 34.7074 23.3266C34.7508 23.3418 34.7834 23.3766 34.7986 23.4179L35.0094 24.0306C35.0354 24.1044 34.9963 24.1848 34.9225 24.2152L34.3293 24.4564C34.312 24.4651 34.2924 24.4694 34.2728 24.4694Z" fill="white"/>
<path d="M21.885 21.6663C22.6325 21.6663 23.2385 21.0603 23.2385 20.3128C23.2385 19.5652 22.6325 18.9592 21.885 18.9592C21.1374 18.9592 20.5314 19.5652 20.5314 20.3128C20.5314 21.0603 21.1374 21.6663 21.885 21.6663Z" fill="#FD8893"/>
<defs>
<linearGradient id="paint0_linear_1209_12709" x1="25.3073" y1="1.26895" x2="25" y2="131" gradientUnits="userSpaceOnUse">
<stop stop-color="#FBB03B"/>
<stop offset="1" stop-color="#ED1C24"/>
</linearGradient>
</defs>
</svg>